<svg width="28" height="28" viewBox="0 0 28 28" fill="none" xmlns="http://www.w3.org/2000/svg">
<path d="M24.5 24.5H5.36667C4.71327 24.5 4.38657 24.5 4.13701 24.3728C3.91749 24.261 3.73901 24.0825 3.62716 23.863C3.5 23.6134 3.5 23.2867 3.5 22.6333V3.5M23.3333 9.33333L18.7613 14.2131C18.588 14.398 18.5014 14.4905 18.3969 14.5383C18.3046 14.5805 18.203 14.5979 18.102 14.5888C17.9875 14.5785 17.875 14.5201 17.6501 14.4033L13.8499 12.43C13.625 12.3133 13.5125 12.2549 13.398 12.2446C13.297 12.2355 13.1954 12.2529 13.1031 12.295C12.9986 12.3428 12.912 12.4353 12.7387 12.6202L8.16667 17.5" stroke="white" stroke-width="1.5" stroke-linecap="round" stroke-linejoin="round"/>
</svg>
