<svg width="24" height="24" viewBox="0 0 24 24" fill="none" xmlns="http://www.w3.org/2000/svg">
<path fill-rule="evenodd" clip-rule="evenodd" d="M5.18164 8.54572C5.18164 7.29033 6.19926 6.27271 7.45466 6.27271H8.36319C9.61859 6.27271 10.6362 7.29033 10.6362 8.54572V19.4548C10.6362 20.7094 9.61859 21.727 8.36319 21.727H7.45466C6.19926 21.727 5.18164 20.7093 5.18164 19.4548V8.54572ZM7.45466 7.18209C6.70125 7.18209 6.09102 7.79232 6.09102 8.54572V19.4548C6.09102 20.2074 6.70125 20.8184 7.45466 20.8184H8.36319C9.11659 20.8184 9.72683 20.2074 9.72683 19.4548V8.54572C9.72683 7.79232 9.11659 7.18209 8.36319 7.18209H7.45466Z" fill="white" stroke="white" stroke-width="0.4"/>
<path fill-rule="evenodd" clip-rule="evenodd" d="M12.4541 5.81843C12.4541 4.56303 13.4717 3.54541 14.7271 3.54541H16.545C17.8004 3.54541 18.818 4.56303 18.818 5.81843V11.273C18.818 11.5235 18.6143 11.7272 18.3638 11.7272H12.9092C12.6578 11.7272 12.4541 11.5235 12.4541 11.273L12.4541 5.81843ZM14.7271 4.45479C13.9737 4.45479 13.3635 5.06502 13.3635 5.81843V10.8178H17.9086V5.81843C17.9086 5.06502 17.2984 4.45479 16.545 4.45479H14.7271Z" fill="white" stroke="white" stroke-width="0.4"/>
<path fill-rule="evenodd" clip-rule="evenodd" d="M4.72712 8.99996C3.97372 8.99996 3.36348 9.61019 3.36348 10.3636V17.636C3.36348 18.3894 3.97372 18.9997 4.72712 18.9997H5.63565V19.909H4.72712C3.47172 19.909 2.4541 18.8914 2.4541 17.636V10.3636C2.4541 9.1082 3.47172 8.09058 4.72712 8.09058H5.63565V8.99996H4.72712ZM12.9089 8.99996H10.1817V8.09058H12.9089V8.99996ZM19.272 8.99996H18.3635V8.09058H19.272C20.5274 8.09058 21.545 9.1082 21.545 10.3636V17.636C21.545 18.8914 20.5274 19.909 19.272 19.909H10.1817V18.9997H19.272C20.0254 18.9997 20.6356 18.3894 20.6356 17.636V10.3636C20.6356 9.61019 20.0254 8.99996 19.272 8.99996Z" fill="white" stroke="white" stroke-width="0.4"/>
<path fill-rule="evenodd" clip-rule="evenodd" d="M18.3637 15.8181H12.9092V14.9087H18.3637V15.8181Z" fill="white"/>
<path fill-rule="evenodd" clip-rule="evenodd" d="M15.6365 17.6361H12.9092V16.7275H15.6365V17.6361Z" fill="white"/>
</svg>
